<svg xmlns="http://www.w3.org/2000/svg" width="320" height="180" viewBox="0 0 320 180">
  <defs>
    <linearGradient id="bg" x1="0" y1="0" x2="1" y2="1">
      <stop offset="0" stop-color="#120403"/>
      <stop offset="1" stop-color="#32100b"/>
    </linearGradient>
  </defs>
  <rect width="320" height="180" fill="url(#bg)"/>
  <ellipse cx="160" cy="122" rx="92" ry="31" fill="#1f0b09"/>
  <path d="M82 116 Q126 56 168 116 Z" fill="#2b150f"/>
  <path d="M238 116 Q194 56 152 116 Z" fill="#21100d"/>
  <circle cx="160" cy="89" r="25" fill="#7c2d12"/>
  <polygon points="137,80 120,58 136,92" fill="#9a3412"/>
  <polygon points="183,80 200,58 184,92" fill="#9a3412"/>
  <polygon points="160,98 186,106 160,114" fill="#fb923c"/>
  <polygon points="160,98 134,106 160,114" fill="#c2410c"/>
  <path d="M151 114 L157 126 L160 118" fill="#fff7ed"/>
  <path d="M169 114 L163 126 L160 118" fill="#fff7ed"/>
  <circle cx="150" cy="87" r="4" fill="#111827"/>
  <circle cx="170" cy="87" r="4" fill="#111827"/>
  <circle cx="151" cy="85" r="1.5" fill="#ffedd5"/>
  <circle cx="171" cy="85" r="1.5" fill="#ffedd5"/>
  <path d="M124 138 Q160 129 196 138" stroke="#7f1d1d" stroke-width="4" fill="none"/>
  <rect x="28" y="20" width="116" height="28" rx="14" fill="#111827" opacity="0.92"/>
  <text x="86" y="39" fill="#fdba74" font-family="Verdana" font-size="14" text-anchor="middle">Evil Dog</text>
</svg>
