<svg xmlns="http://www.w3.org/2000/svg" width="320" height="180" viewBox="0 0 320 180">
  <defs>
    <linearGradient id="bg" x1="0" y1="0" x2="1" y2="1">
      <stop offset="0" stop-color="#02030a"/>
      <stop offset="1" stop-color="#151a2b"/>
    </linearGradient>
  </defs>
  <rect width="320" height="180" fill="url(#bg)"/>
  <ellipse cx="160" cy="122" rx="92" ry="31" fill="#060912"/>
  <path d="M82 116 Q126 56 168 116 Z" fill="#0a0f1c"/>
  <path d="M238 116 Q194 56 152 116 Z" fill="#0c1322"/>
  <circle cx="160" cy="89" r="25" fill="#161f30"/>
  <polygon points="160,98 188,106 160,115" fill="#f59e0b"/>
  <polygon points="160,98 142,103 160,109" fill="#b45309"/>
  <circle cx="149" cy="87" r="4" fill="#facc15"/>
  <circle cx="171" cy="87" r="4" fill="#facc15"/>
  <circle cx="149" cy="85" r="1.5" fill="#fef9c3"/>
  <circle cx="171" cy="85" r="1.5" fill="#fef9c3"/>
  <path d="M124 138 Q160 129 196 138" stroke="#273449" stroke-width="4" fill="none"/>
  <rect x="28" y="20" width="128" height="28" rx="14" fill="#111827" opacity="0.92"/>
  <text x="92" y="39" fill="#fca5a5" font-family="Verdana" font-size="14" text-anchor="middle">Evil Raven</text>
</svg>
