<svg xmlns="http://www.w3.org/2000/svg" width="320" height="180" viewBox="0 0 320 180">
  <defs>
    <linearGradient id="bg" x1="0" y1="0" x2="1" y2="1">
      <stop offset="0" stop-color="#08040f"/>
      <stop offset="1" stop-color="#221234"/>
    </linearGradient>
  </defs>
  <rect width="320" height="180" fill="url(#bg)"/>
  <ellipse cx="160" cy="122" rx="92" ry="31" fill="#1e102d"/>
  <path d="M82 116 Q126 56 168 116 Z" fill="#2c1a42"/>
  <path d="M238 116 Q194 56 152 116 Z" fill="#26153a"/>
  <circle cx="160" cy="89" r="25" fill="#581c87"/>
  <circle cx="142" cy="72" r="10" fill="#a78bfa"/>
  <circle cx="178" cy="72" r="10" fill="#a78bfa"/>
  <polygon points="160,98 186,106 160,114" fill="#f472b6"/>
  <polygon points="160,98 134,106 160,114" fill="#db2777"/>
  <rect x="153" y="114" width="5" height="10" rx="2" fill="#fdf2f8"/>
  <rect x="162" y="114" width="5" height="10" rx="2" fill="#fdf2f8"/>
  <circle cx="150" cy="87" r="4" fill="#111827"/>
  <circle cx="170" cy="87" r="4" fill="#111827"/>
  <circle cx="151" cy="85" r="1.5" fill="#fdf4ff"/>
  <circle cx="171" cy="85" r="1.5" fill="#fdf4ff"/>
  <path d="M106 118 Q84 130 70 144" stroke="#f472b6" stroke-width="4" fill="none"/>
  <path d="M214 118 Q236 130 250 144" stroke="#f472b6" stroke-width="4" fill="none"/>
  <rect x="28" y="20" width="112" height="28" rx="14" fill="#111827" opacity="0.92"/>
  <text x="84" y="39" fill="#f5d0fe" font-family="Verdana" font-size="14" text-anchor="middle">Evil Rat</text>
</svg>
