<svg xmlns="http://www.w3.org/2000/svg" width="320" height="180" viewBox="0 0 320 180">
  <defs>
    <linearGradient id="bg" x1="0" y1="0" x2="1" y2="1">
      <stop offset="0" stop-color="#052e2b"/>
      <stop offset="1" stop-color="#15803d"/>
    </linearGradient>
  </defs>
  <rect width="320" height="180" fill="url(#bg)"/>
  <circle cx="160" cy="96" r="48" fill="#f2d3b6"/>
  <polygon points="128,58 142,34 154,60" fill="#f2d3b6"/>
  <polygon points="166,60 178,34 192,58" fill="#f2d3b6"/>
  <circle cx="145" cy="95" r="6" fill="#0f172a"/>
  <circle cx="175" cy="95" r="6" fill="#0f172a"/>
  <ellipse cx="160" cy="108" rx="8" ry="5" fill="#f97316"/>
  <path d="M160 113 L148 122 M160 113 L172 122" stroke="#f8fafc" stroke-width="3" stroke-linecap="round"/>
  <rect x="124" y="78" width="72" height="28" rx="10" fill="#14532d"/>
  <rect x="141" y="68" width="38" height="18" rx="6" fill="#22c55e"/>
  <circle cx="160" cy="76" r="4" fill="#dcfce7"/>
  <rect x="40" y="24" width="132" height="28" rx="14" fill="#052e16" opacity="0.92"/>
  <text x="106" y="43" fill="#dcfce7" font-family="Verdana" font-size="14" text-anchor="middle">Cat Alchemist</text>
</svg>
