<svg xmlns="http://www.w3.org/2000/svg" width="192" height="192" viewBox="0 0 512 512" role="img" aria-label="MewBattle cat icon">
  <defs>
    <linearGradient id="bg" x1="0" y1="0" x2="1" y2="1">
      <stop offset="0%" stop-color="#0f172a" />
      <stop offset="100%" stop-color="#2563eb" />
    </linearGradient>
    <linearGradient id="fur" x1="0" y1="0" x2="0" y2="1">
      <stop offset="0%" stop-color="#fde7cf" />
      <stop offset="100%" stop-color="#efc7a2" />
    </linearGradient>
  </defs>

  <rect width="512" height="512" rx="120" fill="url(#bg)" />
  <circle cx="256" cy="256" r="210" fill="rgba(255,255,255,0.08)" />

  <g transform="translate(256 258)">
    <path d="M-126 -82 L-76 -190 L-12 -96 Z" fill="url(#fur)" />
    <path d="M126 -82 L76 -190 L12 -96 Z" fill="url(#fur)" />
    <path d="M-110 -88 L-76 -160 L-34 -94 Z" fill="#f59e0b" opacity="0.55" />
    <path d="M110 -88 L76 -160 L34 -94 Z" fill="#f59e0b" opacity="0.55" />

    <ellipse cx="0" cy="16" rx="144" ry="132" fill="url(#fur)" />
    <ellipse cx="0" cy="42" rx="108" ry="88" fill="#fff7ed" opacity="0.82" />

    <circle cx="-56" cy="-6" r="16" fill="#0f172a" />
    <circle cx="56" cy="-6" r="16" fill="#0f172a" />
    <circle cx="-51" cy="-11" r="5" fill="#ffffff" opacity="0.95" />
    <circle cx="61" cy="-11" r="5" fill="#ffffff" opacity="0.95" />

    <path d="M0 18 C-14 18 -22 28 -22 38 C-22 48 -12 56 0 56 C12 56 22 48 22 38 C22 28 14 18 0 18 Z" fill="#ef4444" />
    <path d="M0 54 L-28 78" stroke="#f8fafc" stroke-width="9" stroke-linecap="round" />
    <path d="M0 54 L28 78" stroke="#f8fafc" stroke-width="9" stroke-linecap="round" />

    <path d="M-30 42 L-114 24" stroke="#f8fafc" stroke-width="8" stroke-linecap="round" opacity="0.92" />
    <path d="M-30 56 L-122 58" stroke="#f8fafc" stroke-width="8" stroke-linecap="round" opacity="0.92" />
    <path d="M-30 70 L-114 92" stroke="#f8fafc" stroke-width="8" stroke-linecap="round" opacity="0.92" />
    <path d="M30 42 L114 24" stroke="#f8fafc" stroke-width="8" stroke-linecap="round" opacity="0.92" />
    <path d="M30 56 L122 58" stroke="#f8fafc" stroke-width="8" stroke-linecap="round" opacity="0.92" />
    <path d="M30 70 L114 92" stroke="#f8fafc" stroke-width="8" stroke-linecap="round" opacity="0.92" />
  </g>
</svg>
