<svg xmlns="http://www.w3.org/2000/svg" width="512" height="512" viewBox="0 0 512 512" role="img" aria-label="Dartboard icon">
  <defs>
    <radialGradient id="bg" cx="50%" cy="45%" r="60%">
      <stop offset="0%" stop-color="#1f2937" />
      <stop offset="100%" stop-color="#0b1020" />
    </radialGradient>
    <filter id="shadow" x="-20%" y="-20%" width="140%" height="140%">
      <feDropShadow dx="0" dy="8" stdDeviation="8" flood-color="#000" flood-opacity="0.45" />
    </filter>
  </defs>

  <rect width="512" height="512" rx="110" fill="url(#bg)" />

  <g transform="translate(256 256)" filter="url(#shadow)">
    <circle r="190" fill="#f8fafc" />
    <circle r="175" fill="#111827" />

    <g>
      <path d="M0,-175 A175,175 0 0,1 54.08,-166.43 L45.42,-139.81 A145,145 0 0,0 0,-145Z" fill="#dc2626" />
      <path d="M54.08,-166.43 A175,175 0 0,1 102.86,-141.57 L86.1,-118.54 A145,145 0 0,0 45.42,-139.81Z" fill="#065f46" />
      <path d="M102.86,-141.57 A175,175 0 0,1 141.57,-102.86 L118.54,-86.1 A145,145 0 0,0 86.1,-118.54Z" fill="#dc2626" />
      <path d="M141.57,-102.86 A175,175 0 0,1 166.43,-54.08 L139.81,-45.42 A145,145 0 0,0 118.54,-86.1Z" fill="#065f46" />
      <path d="M166.43,-54.08 A175,175 0 0,1 175,0 L145,0 A145,145 0 0,0 139.81,-45.42Z" fill="#dc2626" />
      <path d="M175,0 A175,175 0 0,1 166.43,54.08 L139.81,45.42 A145,145 0 0,0 145,0Z" fill="#065f46" />
      <path d="M166.43,54.08 A175,175 0 0,1 141.57,102.86 L118.54,86.1 A145,145 0 0,0 139.81,45.42Z" fill="#dc2626" />
      <path d="M141.57,102.86 A175,175 0 0,1 102.86,141.57 L86.1,118.54 A145,145 0 0,0 118.54,86.1Z" fill="#065f46" />
      <path d="M102.86,141.57 A175,175 0 0,1 54.08,166.43 L45.42,139.81 A145,145 0 0,0 86.1,118.54Z" fill="#dc2626" />
      <path d="M54.08,166.43 A175,175 0 0,1 0,175 L0,145 A145,145 0 0,0 45.42,139.81Z" fill="#065f46" />
      <path d="M0,175 A175,175 0 0,1 -54.08,166.43 L-45.42,139.81 A145,145 0 0,0 0,145Z" fill="#dc2626" />
      <path d="M-54.08,166.43 A175,175 0 0,1 -102.86,141.57 L-86.1,118.54 A145,145 0 0,0 -45.42,139.81Z" fill="#065f46" />
      <path d="M-102.86,141.57 A175,175 0 0,1 -141.57,102.86 L-118.54,86.1 A145,145 0 0,0 -86.1,118.54Z" fill="#dc2626" />
      <path d="M-141.57,102.86 A175,175 0 0,1 -166.43,54.08 L-139.81,45.42 A145,145 0 0,0 -118.54,86.1Z" fill="#065f46" />
      <path d="M-166.43,54.08 A175,175 0 0,1 -175,0 L-145,0 A145,145 0 0,0 -139.81,45.42Z" fill="#dc2626" />
      <path d="M-175,0 A175,175 0 0,1 -166.43,-54.08 L-139.81,-45.42 A145,145 0 0,0 -145,0Z" fill="#065f46" />
      <path d="M-166.43,-54.08 A175,175 0 0,1 -141.57,-102.86 L-118.54,-86.1 A145,145 0 0,0 -139.81,-45.42Z" fill="#dc2626" />
      <path d="M-141.57,-102.86 A175,175 0 0,1 -102.86,-141.57 L-86.1,-118.54 A145,145 0 0,0 -118.54,-86.1Z" fill="#065f46" />
      <path d="M-102.86,-141.57 A175,175 0 0,1 -54.08,-166.43 L-45.42,-139.81 A145,145 0 0,0 -86.1,-118.54Z" fill="#dc2626" />
      <path d="M-54.08,-166.43 A175,175 0 0,1 0,-175 L0,-145 A145,145 0 0,0 -45.42,-139.81Z" fill="#065f46" />
    </g>

    <circle r="145" fill="#f8fafc" />
    <circle r="130" fill="#111827" />

    <circle r="30" fill="#065f46" />
    <circle r="14" fill="#dc2626" />

    <g fill="none" stroke="#e5e7eb" stroke-width="2" opacity="0.7">
      <circle r="175" />
      <circle r="145" />
      <circle r="130" />
      <circle r="30" />
      <line x1="0" y1="-175" x2="0" y2="175" />
      <line x1="-175" y1="0" x2="175" y2="0" />
    </g>
  </g>
</svg>
